<svg xmlns="http://www.w3.org/2000/svg" width="561.211" height="497.583" viewBox="0 0 561.211 497.583"><g transform="translate(0.012 0.008)"><g transform="translate(-0.012 -0.008)"><path d="M471.505,244.7v14.5h0v4.817a349.64,349.64,0,0,1-16.245,100.646,192.067,192.067,0,0,1-41,71.231,176.335,176.335,0,0,1-57.7,41A239.42,239.42,0,0,1,279.694,495.9h-.717c-9.839.82-20.037,1.281-30.747,1.281H223.991a279.489,279.489,0,0,1-96.546-15.374A178.9,178.9,0,0,1,57.6,436.61,192.426,192.426,0,0,1,14.6,360.049,374.09,374.09,0,0,1,.049,249.769,380.035,380.035,0,0,1,14.6,138.67,195.654,195.654,0,0,1,57.6,61.494a178.948,178.948,0,0,1,69.9-46.121A269.857,269.857,0,0,1,213.588,0c-5.125,1.9-10.557,3.895-15.374,6.149a191.145,191.145,0,0,0-62.775,44.02A206.109,206.109,0,0,0,89.984,129.6,374.089,374.089,0,0,0,73.842,239.367c0,2.614,0,5.125,0,8.1v8.148h0a312.084,312.084,0,0,0,6.2,58.522c1.332,6.816,2.921,13.375,4.766,19.524a128.78,128.78,0,0,0,24.905,47.761,109,109,0,0,0,47.043,31.26,168.4,168.4,0,0,0,28.749,7.533l2.306.359h1.281a248.277,248.277,0,0,0,34.232,2.357h33.1A216.826,216.826,0,0,0,281.9,420.57h0a150.712,150.712,0,0,0,45.608-13.375,107.155,107.155,0,0,0,34.078-26.084,133.957,133.957,0,0,0,26.955-54.32,306.342,306.342,0,0,0,8.712-77.842,309.165,309.165,0,0,0-8.763-77.79,137.593,137.593,0,0,0-26.6-54.627,105.258,105.258,0,0,0-33.873-26.289c-.513-.256-1.025-.41-1.537-.717h10.813a235.982,235.982,0,0,1,33.053,2.255h.871l2.05.41,5.125.871,2.87.564h1.384l1.384.307,2.716.666c2.409.615,4.817,1.281,7.072,2l.82.769c1.589.461,3.075,1.025,4.561,1.537a94.445,94.445,0,0,1,40.484,27.416,124.015,124.015,0,0,1,23.112,46.121c1.23,4.3,2.357,8.917,3.331,13.631a290.446,290.446,0,0,1,5.125,44.84v4.766h0v3.485C471.249,240.494,471.505,242.236,471.505,244.7Z" transform="translate(0.012 0.043)" fill="#fff"/><path d="M489.443,247.5A378.3,378.3,0,0,1,474.89,358.751a194.733,194.733,0,0,1-42.995,77.329A179.359,179.359,0,0,1,362.048,482.2a270.472,270.472,0,0,1-87.117,15.374c5.534-1.947,10.966-4.1,16.194-6.457a191.863,191.863,0,0,0,62.519-44.378,206.468,206.468,0,0,0,44.327-76.868,367.174,367.174,0,0,0,17.013-104.95h0V259.8h0V239.76h0v-3.792h0v-4.817h0a268.064,268.064,0,0,0-10.044-67.644,128.113,128.113,0,0,0-24.905-47.761,109.05,109.05,0,0,0-46.992-31.208,200.932,200.932,0,0,0-67.285-10.249H241.211A236.748,236.748,0,0,0,207.8,76.544h0A151.172,151.172,0,0,0,162.191,89.97a106.231,106.231,0,0,0-33.976,26.186,134.262,134.262,0,0,0-26.955,54.32,305.677,305.677,0,0,0-8.917,77.79,309.314,309.314,0,0,0,8.609,77.842,137.9,137.9,0,0,0,26.6,54.628,106.385,106.385,0,0,0,34.027,26.289l1.486.666H151.635a180.792,180.792,0,0,1-61.494-9.378A94.753,94.753,0,0,1,49.708,370.9a123.3,123.3,0,0,1-23.163-46.121,277.442,277.442,0,0,1-9.173-69.232V239.709A359.432,359.432,0,0,1,32.746,134.4,190.017,190.017,0,0,1,74.767,60.76a176.386,176.386,0,0,1,57.7-40.535A242.8,242.8,0,0,1,209.337,1.418Q224.71.035,241.314.035H265.6a279.492,279.492,0,0,1,96.444,15.374,179.359,179.359,0,0,1,69.9,45.352A173.154,173.154,0,0,1,456.9,94.89a221.017,221.017,0,0,1,18.038,42.38,374.7,374.7,0,0,1,14.5,110.229Z" transform="translate(71.702 0.008)" fill="#00b4d8"/></g></g></svg>