<svg xmlns="http://www.w3.org/2000/svg" width="1114.354" height="985.156" viewBox="0 0 1114.354 985.156"><g transform="translate(-4151.389 -1037.285)"><path d="M929.037,482.135v28.575h0V520.2A688.907,688.907,0,0,1,897.03,718.507a378.438,378.438,0,0,1-80.776,140.349A347.44,347.44,0,0,1,702.56,939.632,471.735,471.735,0,0,1,551.1,977.092h-1.414c-19.386,1.616-39.48,2.524-60.582,2.524H441.349a550.683,550.683,0,0,1-190.229-30.291A352.488,352.488,0,0,1,113.5,860.27a379.145,379.145,0,0,1-84.714-150.85A737.084,737.084,0,0,1,.108,492.131a748.8,748.8,0,0,1,28.676-218.9A385.506,385.506,0,0,1,113.5,121.165,352.589,352.589,0,0,1,251.222,30.291,531.71,531.71,0,0,1,420.852,0c-10.1,3.736-20.8,7.674-30.291,12.116A376.621,376.621,0,0,0,266.872,98.85a406.1,406.1,0,0,0-89.561,156.5,737.082,737.082,0,0,0-31.806,216.279c0,5.15,0,10.1,0,15.953v16.054h0A614.912,614.912,0,0,0,157.723,618.95c2.625,13.429,5.755,26.353,9.39,38.47a253.74,253.74,0,0,0,49.072,94.1,214.764,214.764,0,0,0,92.691,61.592,331.8,331.8,0,0,0,56.645,14.843l4.544.707h2.524a489.187,489.187,0,0,0,67.448,4.645h65.227a427.219,427.219,0,0,0,50.182-4.645h0a296.949,296.949,0,0,0,89.864-26.353,211.128,211.128,0,0,0,67.145-51.394,263.941,263.941,0,0,0,53.111-107.029,603.6,603.6,0,0,0,17.165-153.374,609.165,609.165,0,0,0-17.266-153.273,271.105,271.105,0,0,0-52.4-107.635,207.393,207.393,0,0,0-66.742-51.8c-1.01-.5-2.019-.808-3.029-1.414h21.3a464.963,464.963,0,0,1,65.126,4.443h1.716l4.039.808,10.1,1.716,5.654,1.111h2.726l2.726.606,5.352,1.313c4.746,1.212,9.491,2.524,13.934,3.938l1.616,1.515c3.13.909,6.058,2.019,8.986,3.029a186.089,186.089,0,0,1,79.767,54.019,244.352,244.352,0,0,1,45.538,90.874c2.423,8.481,4.645,17.569,6.563,26.858a572.281,572.281,0,0,1,10.1,88.349v9.39h0v6.866C928.533,473.855,929.037,477.288,929.037,482.135Z" transform="translate(4151.4 1042.736)" fill="#1d3d59"/><path d="M947.515,487.663A745.364,745.364,0,0,1,918.84,706.87a383.688,383.688,0,0,1-84.714,152.365A353.394,353.394,0,0,1,696.5,950.109,532.914,532.914,0,0,1,524.853,980.4c10.9-3.837,21.608-8.078,31.907-12.722a378.036,378.036,0,0,0,123.184-87.441,406.81,406.81,0,0,0,87.34-151.456,723.454,723.454,0,0,0,33.522-206.788h0V511.9h0v-39.48h0v-7.472h0v-9.491h0a528.166,528.166,0,0,0-19.79-133.281,252.422,252.422,0,0,0-49.072-94.1,214.866,214.866,0,0,0-92.59-61.491,395.9,395.9,0,0,0-132.574-20.194H458.414a466.471,466.471,0,0,0-65.833,4.443h0a297.861,297.861,0,0,0-89.864,26.454,209.312,209.312,0,0,0-66.943,51.6A264.543,264.543,0,0,0,182.663,335.9a602.287,602.287,0,0,0-17.569,153.273,609.451,609.451,0,0,0,16.963,153.374,271.711,271.711,0,0,0,52.4,107.635,209.615,209.615,0,0,0,67.044,51.8l2.928,1.313H281.917A356.221,356.221,0,0,1,160.753,784.82,186.7,186.7,0,0,1,81.087,730.8a242.934,242.934,0,0,1-45.639-90.874A546.655,546.655,0,0,1,17.374,503.516v-31.2A708.2,708.2,0,0,1,47.666,264.821a374.4,374.4,0,0,1,82.8-145.095A347.54,347.54,0,0,1,244.154,39.859,478.4,478.4,0,0,1,395.61,2.8Q425.9.076,458.616.076h47.86A550.7,550.7,0,0,1,696.5,30.368a353.4,353.4,0,0,1,137.724,89.359A341.18,341.18,0,0,1,883.4,186.973a435.485,435.485,0,0,1,35.541,83.5,738.3,738.3,0,0,1,28.575,217.188Z" transform="translate(4318.096 1037.293)" fill="#00b4d8"/></g></svg>